<svg xmlns="http://www.w3.org/2000/svg" width="138" height="53" viewBox="0 0 138 53">
<style>
  .a{
    fill:#000;
  }
  .b{
    fill:#02458b;
  }
</style>
  <path d="M26 44v-0.5c1.9-0.4 2-0.9 2-3.8v-7c0-1.5 0-2-1.6-3.3V28.9l3.2-1.6 0.3 0.2V39.7c0 3 0.1 3.3 2 3.8v0.5H26L26 44z" class="a"/>
  <path d="M37.2 39.7c0 3 0.1 3.3 1.8 3.8v0.5h-5.7v-0.5c1.8-0.4 1.8-0.9 1.8-3.8v-7c0-1.5 0.1-2-1.3-3.2v-0.4l3.1-1.6 0.3 0.1 -0.2 2.8c1.2-1.5 2.7-2.9 4.3-2.9 1.3 0 2.7 1.1 3.1 2.9 1.2-1.5 2.6-2.9 4.3-2.9 3.8 0 3.4 5.6 3.4 7.5V39.7c0 3 0.1 3.3 1.8 3.8v0.5h-5.7v-0.5c1.8-0.4 1.8-0.9 1.8-3.8v-3.9c0-1.4 0.4-6.5-2.9-6.5 -1.1 0-1.8 0.6-2.5 1.7V39.7c0 3 0.1 3.3 1.8 3.8v0.5H40.7v-0.5c1.8-0.4 1.8-0.9 1.8-3.8v-3.9c0-2 0.3-6.5-2.9-6.5 -1.1 0-1.9 0.7-2.6 1.8" class="a"/>
  <path d="M58.8 30.3c0.8-0.8 1.5-1 2.4-1 1.4 0 4.4 1.5 4.4 7.1 0 3.1-1.1 7-3.6 7 -3.1 0-3.2-3.5-3.2-5.5V30.3L58.8 30.3zM58.8 44.3l1.7 0.1c4.3 0.3 7.3-4.7 7.3-9.3 0-4-2-7.7-4.9-7.7 -1.5 0-2.9 1.1-4.1 2.2l0.1-2.2 -0.3-0.1 -3.1 1.7v0.4c1.3 1.3 1.3 1.8 1.3 3.4v16c0 2.8-0.1 3.2-1.9 3.7V53h6.7v-0.6c-2.7-0.4-2.9-0.7-2.9-3.7V44.3H58.8z" class="a"/>
  <path d="M73 39.7c0 3 0.1 3.3 2.6 3.8v0.5h-6.5v-0.5c1.8-0.4 1.8-0.9 1.9-3.8v-7c0-1.5 0-2-1.3-3.3V28.9l3.1-1.6 0.3 0.2 -0.1 4.4h0.1c0.6-1.9 2-4.6 3.6-4.6 0.7 0 1.3 0.7 1.3 1.7 0 1-0.8 1.8-1.3 2.2 -0.4-0.4-1.1-1.2-1.7-1.1 -2.2 0.3-2 5.3-2 5.8V39.7L73 39.7z" class="a"/>
  <path d="M79.2 44v-0.5c1.9-0.4 2-0.9 2-3.8v-7c0-1.5 0.1-2-1.6-3.3V28.9l3.3-1.6 0.3 0.2V39.7c0 3 0.1 3.3 2 3.8v0.5H79.2L79.2 44zM83.4 21.9c0 1-0.6 1.8-1.3 1.8 -0.8 0-1.3-0.8-1.3-1.8 0-1 0.6-1.8 1.3-1.8C82.8 20.1 83.4 20.9 83.4 21.9L83.4 21.9z" class="a"/>
  <path d="M88.5 32.7c0-1.5 0.1-2-1.3-3.2v-0.4l3.1-1.6 0.3 0.1 -0.2 2.7c1.5-1.5 2.9-2.8 4.5-2.8 3.1 0 3.2 3.7 3.2 5.8V39.7c0 3 0.1 3.3 2 3.8v0.5h-6v-0.5c1.9-0.4 2-0.9 2-3.8v-4.2c0-2.5 0.1-6.2-3-6.2 -1.1 0-1.8 0.4-2.7 1.5V39.7c0 3 0.1 3.3 2 3.8v0.5h-6v-0.5c1.9-0.4 2-0.9 2-3.8" class="a"/>
  <path d="M105.1 37.6c0 3.2 0.1 5.3 2.9 5.3 0.5 0 1-0.1 1.5-0.3l0.1 0.6c-1.3 0.6-2.7 1.1-4.1 1.1 -2.5 0-2.4-1.8-2.4-4.7V29.5h-1.7l-0.1-0.3 3.6-5.2h0.2v3.9h4.1v1.5h-4.1V37.6L105.1 37.6z" class="a"/>
  <path d="M33.1 22.1c18.3-5.1 36.6-9.6 36.6-9.6 26.3-6.7 45.9-6.2 45.9-6.2 6.2 0 10.9 1.9 11.8 5.3 1 3.7 0.3 7.6-8.5 16.5l1 0.5c17.4-15 19-19.8 17.9-24.1 -0.8-2.9-4.8-4.6-10.2-4.6 0 0-17-0.4-39.6 5.4 0 0-38 9.6-54.9 15.1V22.1L33.1 22.1z" class="b"/>
  <path d="M115.1 37.6c1.7 0 3.1-1.3 3.1-3s-1.4-3.1-3.1-3.1c-1.7 0-3.1 1.3-3.1 3.1C112 36.2 113.4 37.6 115.1 37.6L115.1 37.6z" class="b"/>
  <path d="M19.6 17l-2.3-0.1L0 35.6l0.2 1h13.7v1c0 3.8 0 5.3-5 6v0.6H21.9V43.7c-4.3-0.7-3.9-2.2-3.9-6v-1.1h3.9v-2.5h-3.9c0-3 0.1-6.5 0.1-8.9l-4.1 1.4v7.5H4L19.6 17 19.6 17z" class="b"/>
  <path d="M30.1 21.9c0 1-0.6 1.8-1.3 1.8s-1.3-0.8-1.3-1.8c0-1 0.6-1.8 1.3-1.8C29.6 20.1 30.1 20.9 30.1 21.9L30.1 21.9z" class="a"/>
    <path d="M110.3 29c0-0.2 0.1-0.4 0.2-0.6 0.1-0.2 0.3-0.4 0.5-0.5 0.2-0.1 0.4-0.2 0.6-0.2 0.2 0 0.4 0.1 0.6 0.2 0.2 0.1 0.4 0.3 0.5 0.5 0.1 0.2 0.2 0.4 0.2 0.6 0 0.2-0.1 0.4-0.2 0.6 -0.1 0.2-0.3 0.4-0.5 0.5 -0.2 0.1-0.4 0.2-0.6 0.2 -0.2 0-0.4-0.1-0.6-0.2s-0.3-0.3-0.5-0.5C110.4 29.4 110.3 29.2 110.3 29zM110.5 29c0 0.2 0 0.4 0.1 0.5 0.1 0.2 0.2 0.3 0.4 0.4 0.2 0.1 0.4 0.1 0.5 0.1 0.2 0 0.4 0 0.5-0.1 0.2-0.1 0.3-0.2 0.4-0.4 0.1-0.2 0.1-0.3 0.1-0.5 0-0.2 0-0.4-0.1-0.5 -0.1-0.2-0.2-0.3-0.4-0.4 -0.2-0.1-0.3-0.1-0.5-0.1 -0.2 0-0.4 0-0.5 0.1 -0.2 0.1-0.3 0.2-0.4 0.4C110.6 28.6 110.5 28.8 110.5 29zM112.1 28.6c0 0.1 0 0.2-0.1 0.2 0 0.1-0.1 0.1-0.2 0.2l0.4 0.7h-0.3l-0.3-0.6h-0.2v0.6h-0.2v-1.5h0.4c0.2 0 0.3 0 0.4 0.1C112.1 28.4 112.1 28.5 112.1 28.6zM111.4 28.9h0.2c0.1 0 0.2 0 0.2-0.1s0.1-0.1 0.1-0.2c0-0.1 0-0.1-0.1-0.2 0 0-0.1-0.1-0.2-0.1h-0.2V28.9z" class="undefined"/>
</svg>